<svg width="26" height="26" viewBox="0 0 26 26" fill="none" xmlns="http://www.w3.org/2000/svg">
<g clip-path="url(#clip0)">
<path fill-rule="evenodd" clip-rule="evenodd" d="M0.245117 12.5849C0.245117 18.7995 4.75866 23.9672 10.6618 25.0151V15.987H7.53678V12.5151H10.6618V9.73701C10.6618 6.61201 12.6753 4.87659 15.5232 4.87659C16.4253 4.87659 17.3982 5.01514 18.3003 5.15368V8.34847H16.7034C15.1753 8.34847 14.8285 9.11201 14.8285 10.0849V12.5151H18.1618L17.6066 15.987H14.8285V25.0151C20.7316 23.9672 25.2451 18.8006 25.2451 12.5849C25.2451 5.67139 19.6201 0.0151367 12.7451 0.0151367C5.87012 0.0151367 0.245117 5.67139 0.245117 12.5849Z" fill="#FFA801"/>
</g>
<defs>
<clipPath id="clip0">
<rect width="25" height="25" fill="white" transform="translate(0.245117 0.0151367)"/>
</clipPath>
</defs>
</svg>
