<svg width="26" height="26" viewBox="0 0 26 26" fill="none" xmlns="http://www.w3.org/2000/svg">
<g clip-path="url(#clip0)">
<path d="M17.2054 12.516C17.2054 13.5106 16.8103 14.4644 16.1071 15.1676C15.4038 15.8709 14.45 16.266 13.4554 16.266C12.4609 16.266 11.507 15.8709 10.8038 15.1676C10.1005 14.4644 9.70543 13.5106 9.70543 12.516C9.70543 12.3022 9.72793 12.0935 9.76668 11.891H8.45544V16.8872C8.45544 17.2347 8.73669 17.516 9.08419 17.516H17.8279C17.9945 17.5157 18.1541 17.4493 18.2717 17.3314C18.3894 17.2135 18.4554 17.0538 18.4554 16.8872V11.891H17.1442C17.1829 12.0935 17.2054 12.3022 17.2054 12.516ZM13.4554 15.016C13.7838 15.0159 14.109 14.9511 14.4123 14.8254C14.7157 14.6997 14.9913 14.5154 15.2235 14.2831C15.4556 14.0509 15.6397 13.7752 15.7653 13.4717C15.8909 13.1683 15.9555 12.8431 15.9554 12.5147C15.9553 12.1864 15.8906 11.8612 15.7648 11.5578C15.6391 11.2545 15.4548 10.9789 15.2226 10.7467C14.9903 10.5146 14.7146 10.3304 14.4112 10.2049C14.1078 10.0793 13.7826 10.0147 13.4542 10.0147C12.791 10.0149 12.155 10.2785 11.6862 10.7476C11.2173 11.2167 10.954 11.8528 10.9542 12.516C10.9543 13.1792 11.218 13.8152 11.687 14.284C12.1561 14.7529 12.7922 15.0162 13.4554 15.016ZM16.4554 9.89099H17.9542C18.0537 9.89099 18.1493 9.85152 18.2198 9.78123C18.2903 9.71094 18.3301 9.61556 18.3304 9.51599V8.01724C18.3304 7.91745 18.2908 7.82175 18.2202 7.75119C18.1497 7.68063 18.054 7.64099 17.9542 7.64099H16.4554C16.3556 7.64099 16.2599 7.68063 16.1894 7.75119C16.1188 7.82175 16.0792 7.91745 16.0792 8.01724V9.51599C16.0804 9.72224 16.2492 9.89099 16.4554 9.89099ZM13.4554 0.515991C10.2728 0.515991 7.22059 1.78027 4.97016 4.03071C2.71972 6.28115 1.45544 9.33339 1.45544 12.516C1.45544 15.6986 2.71972 18.7508 4.97016 21.0013C7.22059 23.2517 10.2728 24.516 13.4554 24.516C15.0313 24.516 16.5917 24.2056 18.0476 23.6025C19.5035 22.9995 20.8264 22.1156 21.9407 21.0013C23.055 19.887 23.9389 18.5641 24.542 17.1082C25.145 15.6523 25.4554 14.0919 25.4554 12.516C25.4554 10.9401 25.145 9.3797 24.542 7.92379C23.9389 6.46788 23.055 5.14501 21.9407 4.03071C20.8264 2.91641 19.5035 2.03249 18.0476 1.42944C16.5917 0.82638 15.0313 0.515991 13.4554 0.515991ZM19.7054 17.3772C19.7054 18.141 19.0804 18.766 18.3167 18.766H8.59419C7.83044 18.766 7.20544 18.141 7.20544 17.3772V7.65474C7.20544 6.89099 7.83044 6.26599 8.59419 6.26599H18.3167C19.0804 6.26599 19.7054 6.89099 19.7054 7.65474V17.3772Z" fill="#FFA801"/>
</g>
<defs>
<clipPath id="clip0">
<rect width="25" height="25" fill="white" transform="translate(0.955078 0.0151367)"/>
</clipPath>
</defs>
</svg>
