<svg width="25" height="25" viewBox="0 0 25 25" fill="inherit" xmlns="http://www.w3.org/2000/svg">
<path d="M12.1658 0.516235C5.53827 0.516235 0.165771 5.88873 0.165771 12.5162C0.165771 19.1437 5.53827 24.5162 12.1658 24.5162C18.7933 24.5162 24.1658 19.1437 24.1658 12.5162C24.1658 5.88873 18.7933 0.516235 12.1658 0.516235ZM16.7808 14.055C16.7808 14.055 17.842 15.1025 18.1033 15.5887C18.1108 15.5987 18.1145 15.6087 18.117 15.6137C18.2233 15.7925 18.2483 15.9312 18.1958 16.035C18.1083 16.2075 17.8083 16.2925 17.7058 16.3H15.8308C15.7008 16.3 15.4283 16.2662 15.0983 16.0387C14.8445 15.8612 14.5945 15.57 14.3508 15.2862C13.987 14.8637 13.672 14.4987 13.3545 14.4987C13.3142 14.4987 13.2741 14.505 13.2358 14.5175C12.9958 14.595 12.6883 14.9375 12.6883 15.85C12.6883 16.135 12.4633 16.2987 12.3045 16.2987H11.4458C11.1533 16.2987 9.62952 16.1962 8.27952 14.7725C6.62702 13.0287 5.13952 9.53123 5.12702 9.49873C5.03327 9.27248 5.22702 9.15123 5.43827 9.15123H7.33202C7.58452 9.15123 7.66702 9.30498 7.72452 9.44123C7.79202 9.59998 8.03952 10.2312 8.44577 10.9412C9.10452 12.0987 9.50827 12.5687 9.83202 12.5687C9.89273 12.568 9.95235 12.5526 10.0058 12.5237C10.4283 12.2887 10.3495 10.7825 10.3308 10.47C10.3308 10.4112 10.3295 9.79623 10.1133 9.50123C9.95827 9.28748 9.69452 9.20623 9.53452 9.17623C9.59928 9.08687 9.6846 9.01441 9.78327 8.96498C10.0733 8.81998 10.5958 8.79873 11.1145 8.79873H11.4033C11.9658 8.80623 12.1108 8.84248 12.3145 8.89373C12.727 8.99248 12.7358 9.25873 12.6995 10.17C12.6883 10.4287 12.677 10.7212 12.677 11.0662C12.677 11.1412 12.6733 11.2212 12.6733 11.3062C12.6608 11.77 12.6458 12.2962 12.9733 12.5125C13.016 12.5393 13.0654 12.5536 13.1158 12.5537C13.2295 12.5537 13.572 12.5537 14.4995 10.9625C14.7856 10.4503 15.0341 9.91808 15.2433 9.36998C15.262 9.33748 15.317 9.23748 15.382 9.19873C15.43 9.17428 15.4832 9.16184 15.537 9.16248H17.7633C18.0058 9.16248 18.172 9.19873 18.2033 9.29248C18.2583 9.44123 18.1933 9.89498 17.177 11.2712L16.7233 11.87C15.802 13.0775 15.802 13.1387 16.7808 14.055Z" fill="inherit"/>
</svg>
