<svg width="26" height="26" viewBox="0 0 26 26" fill="none" xmlns="http://www.w3.org/2000/svg">
<g clip-path="url(#clip0)">
<path d="M15.0398 12.3072L12.2323 10.9972C11.9873 10.8835 11.786 11.011 11.786 11.2822V13.7497C11.786 14.021 11.9873 14.1485 12.2323 14.0347L15.0385 12.7247C15.2848 12.6097 15.2848 12.4222 15.0398 12.3072ZM13.036 0.515991C6.40851 0.515991 1.03601 5.88849 1.03601 12.516C1.03601 19.1435 6.40851 24.516 13.036 24.516C19.6635 24.516 25.036 19.1435 25.036 12.516C25.036 5.88849 19.6635 0.515991 13.036 0.515991ZM13.036 17.391C6.89351 17.391 6.78601 16.8372 6.78601 12.516C6.78601 8.19474 6.89351 7.64099 13.036 7.64099C19.1785 7.64099 19.286 8.19474 19.286 12.516C19.286 16.8372 19.1785 17.391 13.036 17.391Z" fill="#FFA801"/>
</g>
<defs>
<clipPath id="clip0">
<rect width="25" height="25" fill="white" transform="translate(0.535156 0.0151367)"/>
</clipPath>
</defs>
</svg>
