<svg width="107" height="19" viewBox="0 0 107 19" fill="none" xmlns="http://www.w3.org/2000/svg">
<path d="M0.2 0.999999H8.6C10 0.999999 11.0133 1.32 11.64 1.96C12.28 2.58667 12.6 3.6 12.6 5V7C12.6 8.4 12.28 9.42 11.64 10.06C11.0133 10.6867 10 11 8.6 11H3.8V15H0.2V0.999999ZM9 5C9 4.2 8.6 3.8 7.8 3.8H3.8V8.2H7.8C8.6 8.2 9 7.8 9 7V5ZM20.2992 7.3C19.4592 7.3 18.5926 7.5 17.6992 7.9V15H14.1992V4.4H17.2992L17.4992 5.7C18.6459 4.7 19.8459 4.2 21.0992 4.2H21.9992V7.3H20.2992ZM33.8078 12C33.8078 13 33.5211 13.7867 32.9478 14.36C32.3878 14.92 31.6078 15.2 30.6078 15.2H26.0078C25.0078 15.2 24.2211 14.92 23.6478 14.36C23.0878 13.7867 22.8078 13 22.8078 12V7.4C22.8078 6.4 23.0878 5.62 23.6478 5.06C24.2211 4.48667 25.0078 4.2 26.0078 4.2H30.6078C31.6078 4.2 32.3878 4.48667 32.9478 5.06C33.5211 5.62 33.8078 6.4 33.8078 7.4V12ZM30.3078 7.7C30.3078 7.16667 30.0411 6.9 29.5078 6.9H27.1078C26.5745 6.9 26.3078 7.16667 26.3078 7.7V11.7C26.3078 12.2333 26.5745 12.5 27.1078 12.5H29.5078C30.0411 12.5 30.3078 12.2333 30.3078 11.7V7.7ZM44.2055 3.7C43.8188 3.67333 43.3055 3.63333 42.6655 3.58C42.0255 3.52667 41.4721 3.5 41.0055 3.5C40.5388 3.5 40.2388 3.56667 40.1055 3.7C39.9721 3.83333 39.9055 4 39.9055 4.2V5.2H43.2055V7.9H39.9055V15H36.4055V7.9H35.0055V5.2H36.4055V3.8C36.4055 2.89333 36.6788 2.16667 37.2255 1.62C37.7721 1.07333 38.4988 0.799999 39.4055 0.799999C40.2188 0.799999 41.0788 0.826666 41.9855 0.879999C42.8921 0.933333 43.6321 0.973333 44.2055 0.999999V3.7ZM49.0094 4.8V15H45.5094V7.5H44.0094V4.8H49.0094ZM45.5094 0.799999H49.0094V3.6H45.5094V0.799999Z" fill="#FFA801"/>
<path d="M50.7956 12.1C54.449 12.3 56.9223 12.4 58.2156 12.4C58.5223 12.4 58.7623 12.3133 58.9356 12.14C59.1223 11.9533 59.2156 11.7067 59.2156 11.4V9.6H54.6156C53.2156 9.6 52.1956 9.28667 51.5556 8.66C50.929 8.02 50.6156 7 50.6156 5.6V5C50.6156 3.6 50.929 2.58667 51.5556 1.96C52.1956 1.32 53.2156 0.999999 54.6156 0.999999H61.6356V3.8H55.4156C54.6156 3.8 54.2156 4.2 54.2156 5V5.4C54.2156 6.2 54.6156 6.6 55.4156 6.6H59.0156C60.3223 6.6 61.2823 6.90667 61.8956 7.52C62.509 8.13333 62.8156 9.09333 62.8156 10.4V11.4C62.8156 12.7067 62.509 13.6667 61.8956 14.28C61.2823 14.8933 60.3223 15.2 59.0156 15.2C58.3356 15.2 57.6156 15.1867 56.8556 15.16L55.0156 15.08C53.6556 15.0133 52.249 14.92 50.7956 14.8V12.1ZM70.3141 7.1C69.6074 7.1 68.8074 7.23333 67.9141 7.5V12.3H70.9141C71.4474 12.3 71.7141 12.0333 71.7141 11.5V7.8C71.7141 7.6 71.6474 7.43333 71.5141 7.3C71.3807 7.16667 71.2141 7.1 71.0141 7.1H70.3141ZM67.9141 15V18.4H64.4141V4.4H67.5141L67.7141 5.4C68.3407 4.98667 68.9807 4.68667 69.6341 4.5C70.3007 4.3 70.8607 4.2 71.3141 4.2H72.2141C73.1207 4.2 73.8474 4.47333 74.3941 5.02C74.9407 5.56667 75.2141 6.29333 75.2141 7.2V11.8C75.2141 12.8 74.9274 13.5867 74.3541 14.16C73.7941 14.72 73.0141 15 72.0141 15H67.9141ZM87.8117 12C87.8117 13 87.5251 13.7867 86.9517 14.36C86.3917 14.92 85.6117 15.2 84.6117 15.2H80.0117C79.0117 15.2 78.2251 14.92 77.6517 14.36C77.0917 13.7867 76.8117 13 76.8117 12V7.4C76.8117 6.4 77.0917 5.62 77.6517 5.06C78.2251 4.48667 79.0117 4.2 80.0117 4.2H84.6117C85.6117 4.2 86.3917 4.48667 86.9517 5.06C87.5251 5.62 87.8117 6.4 87.8117 7.4V12ZM84.3117 7.7C84.3117 7.16667 84.0451 6.9 83.5117 6.9H81.1117C80.5784 6.9 80.3117 7.16667 80.3117 7.7V11.7C80.3117 12.2333 80.5784 12.5 81.1117 12.5H83.5117C84.0451 12.5 84.3117 12.2333 84.3117 11.7V7.7ZM95.7094 7.3C94.8694 7.3 94.0027 7.5 93.1094 7.9V15H89.6094V4.4H92.7094L92.9094 5.7C94.056 4.7 95.256 4.2 96.5094 4.2H97.4094V7.3H95.7094ZM106.209 15C104.915 15.1333 103.649 15.2 102.409 15.2C101.502 15.2 100.775 14.9267 100.229 14.38C99.6819 13.8333 99.4086 13.1067 99.4086 12.2V7.1H98.2086V4.4H99.4086L99.8086 2H102.909V4.4H105.409V7.1H102.909V11.7C102.909 11.9 102.975 12.0667 103.109 12.2C103.242 12.3333 103.409 12.4 103.609 12.4H106.209V15Z" fill="#131315"/>
</svg>
