<?xml version="1.0" encoding="UTF-8"?><svg viewBox="0 0 10 10" xmlns="http://www.w3.org/2000/svg" xmlns:xlink="http://www.w3.org/1999/xlink"><style>:root>svg{display:none}:root>svg:target{display:block}</style><svg viewBox="0 0 10 10" id="user" xmlns="http://www.w3.org/2000/svg"><path d="M5 0a2.64 2.64 0 00-2.637 2.637A2.64 2.64 0 005 5.273a2.64 2.64 0 002.637-2.636A2.64 2.64 0 005 0zm0 0M8.281 6.996A3.756 3.756 0 005.586 5.86H4.414A3.756 3.756 0 001.72 6.996 3.84 3.84 0 00.605 9.707c0 .16.133.293.293.293h8.204c.16 0 .293-.133.293-.293a3.84 3.84 0 00-1.114-2.71zm0 0"/></svg></svg>