<?xml version="1.0" encoding="utf-8"?><svg viewBox="0 0 340 310" xmlns="http://www.w3.org/2000/svg" xmlns:xlink="http://www.w3.org/1999/xlink"><style>:root>svg{display:none}:root>svg:target{display:block}</style><svg fill="none" viewBox="0 0 15 9" id="arrow-down" xmlns="http://www.w3.org/2000/svg"><path d="M1.25 1.375l6.25 6.25 6.25-6.25" stroke="#4F4F4F" stroke-width="1.303"/></svg><svg fill="none" viewBox="0 0 18 18" id="cart-close" xmlns="http://www.w3.org/2000/svg"><path d="M17 1L1 17m16 0L1 1l16 16z" stroke="inherit" stroke-width="2" stroke-linecap="round"/></svg><svg fill="none" viewBox="0 0 25 25" id="cart-trash" xmlns="http://www.w3.org/2000/svg"><path d="M9.375 4.688l.781-3.125h4.688l.781 3.125m6.25 0H4.687l1.563 18.75h12.5l1.563-18.75H3.125h18.75zM12.5 9.375v9.375-9.375zm3.906 0l-.781 9.375.781-9.375zm-7.812 0l.781 9.375-.781-9.375z" stroke="inherit" stroke-width="2" stroke-linecap="round" stroke-linejoin="round"/></svg><svg fill="none" viewBox="0 0 262 141" id="catalog-bg" xmlns="http://www.w3.org/2000/svg"><path d="M262 102.975L0 .108v130.718c0 5.523 4.477 10 10 10h242c5.523 0 10-4.477 10-10v-27.851z" fill="#FFA801"/></svg><svg fill="none" viewBox="0 0 340 158" id="equipment-bg" xmlns="http://www.w3.org/2000/svg"><path d="M0 121.26a10 10 0 016.736-9.453l320-110.486C333.231-.92 340 3.903 340 10.774V148c0 5.523-4.477 10-10 10H10c-5.523 0-10-4.477-10-10v-26.74z" fill="#FFA801"/></svg><svg fill="inherit" viewBox="0 0 26 26" id="fb" xmlns="http://www.w3.org/2000/svg"><g clip-path="url(#fclip0)"><path fill-rule="evenodd" clip-rule="evenodd" d="M.245 12.585c0 6.214 4.514 11.382 10.417 12.43v-9.028H7.537v-3.472h3.125V9.737c0-3.125 2.013-4.86 4.861-4.86.902 0 1.875.138 2.777.277v3.194h-1.597c-1.528 0-1.874.764-1.874 1.737v2.43h3.333l-.555 3.472h-2.778v9.028c5.903-1.048 10.416-6.214 10.416-12.43 0-6.914-5.625-12.57-12.5-12.57S.245 5.671.245 12.585z"/></g><defs><clipPath id="fclip0"><path fill="#fff" transform="translate(.245 .015)" d="M0 0h25v25H0z"/></clipPath></defs></svg><svg fill="none" viewBox="0 0 260 310" id="hero-decor" xmlns="http://www.w3.org/2000/svg"><path d="M260 5H5v300h255" stroke="#FFA801" stroke-width="10"/><path fill="#FFA801" d="M250 10h10v50h-10zM250 250h10v50h-10z"/></svg><svg fill="none" viewBox="0 0 63 63" id="hero-reason" xmlns="http://www.w3.org/2000/svg"><path fill-rule="evenodd" clip-rule="evenodd" d="M50.29 58.834a8.604 8.604 0 100-17.209 8.604 8.604 0 000 17.209zm0 3.441a12.045 12.045 0 100-24.09 12.045 12.045 0 000 24.09z" fill="#FFA801"/><path fill-rule="evenodd" clip-rule="evenodd" d="M50.29 44.206a1.72 1.72 0 011.72 1.721v3.59l1.217 1.217a1.72 1.72 0 01-2.434 2.433l-2.225-2.225v-5.015a1.72 1.72 0 011.721-1.72z" fill="#FFA801"/><path fill-rule="evenodd" clip-rule="evenodd" d="M14.152 29.58H10.71v3.441h3.442v-3.442zm-3.442-3.442a3.442 3.442 0 00-3.442 3.441v3.442a3.442 3.442 0 003.442 3.442h3.442a3.442 3.442 0 003.441-3.442v-3.442a3.442 3.442 0 00-3.441-3.441H10.71zM27.918 29.58h-3.441v3.441h3.441v-3.442zm-3.441-3.442a3.442 3.442 0 00-3.442 3.441v3.442a3.441 3.441 0 003.442 3.442h3.441a3.442 3.442 0 003.442-3.442v-3.442a3.442 3.442 0 00-3.442-3.441h-3.441zM41.685 29.58h-3.442v3.441h3.442v-3.442zm-3.442-3.442a3.442 3.442 0 00-3.441 3.441v3.442a3.441 3.441 0 003.441 3.442h3.442a3.441 3.441 0 003.442-3.442v-3.442a3.442 3.442 0 00-3.442-3.441h-3.442zM14.152 43.346H10.71v3.442h3.442v-3.442zm-3.442-3.442a3.442 3.442 0 00-3.442 3.442v3.442a3.442 3.442 0 003.442 3.441h3.442a3.442 3.442 0 003.441-3.441v-3.442a3.442 3.442 0 00-3.441-3.442H10.71zM27.918 43.346h-3.441v3.442h3.441v-3.442zm-3.441-3.442a3.442 3.442 0 00-3.442 3.442v3.442a3.441 3.441 0 003.442 3.441h3.441a3.442 3.442 0 003.442-3.441v-3.442a3.442 3.442 0 00-3.442-3.442h-3.441z" fill="#fff"/><path fill-rule="evenodd" clip-rule="evenodd" d="M3.827 10.65a1.72 1.72 0 011.72-1.72h8.605V5.487H5.548A5.163 5.163 0 00.385 10.65v41.3a5.162 5.162 0 005.163 5.163h34.855a11.996 11.996 0 01-1.66-3.442H5.547a1.72 1.72 0 01-1.721-1.72v-41.3zm44.741 27.654a12.15 12.15 0 013.442 0V10.65a5.162 5.162 0 00-5.163-5.162h-5.162v3.441h5.162a1.72 1.72 0 011.721 1.721v27.654zM17.593 8.93H35.77V5.488H17.593v3.441z" fill="#fff"/><path fill-rule="evenodd" clip-rule="evenodd" d="M52.01 20.975H3.827v-3.441H52.01v3.441z" fill="#fff"/><path d="M10.71 2.046a1.72 1.72 0 013.442 0v8.604a1.72 1.72 0 11-3.442 0V2.046zM34.802 2.046a1.72 1.72 0 113.441 0v8.604a1.72 1.72 0 11-3.441 0V2.046z" fill="#fff"/></svg><svg fill="inherit" viewBox="0 0 26 26" id="insta" xmlns="http://www.w3.org/2000/svg"><g clip-path="url(#iclip0)"><path d="M17.205 12.516a3.75 3.75 0 11-7.5 0c0-.214.023-.422.062-.625H8.455v4.996c0 .348.282.629.63.629h8.743a.628.628 0 00.627-.629v-4.996h-1.31c.038.203.06.411.06.625zm-3.75 2.5a2.502 2.502 0 10-.001-5.003 2.502 2.502 0 00.001 5.003zm3-5.125h1.5a.376.376 0 00.375-.375V8.017a.376.376 0 00-.376-.376h-1.499a.376.376 0 00-.376.376v1.499c.001.206.17.375.376.375zm-3-9.375a12 12 0 100 24 12 12 0 000-24zm6.25 16.861c0 .764-.625 1.389-1.388 1.389H8.594a1.393 1.393 0 01-1.389-1.389V7.655c0-.764.625-1.389 1.39-1.389h9.722c.763 0 1.388.625 1.388 1.389v9.722z"/></g><defs><clipPath id="iclip0"><path fill="#fff" transform="translate(.955 .015)" d="M0 0h25v25H0z"/></clipPath></defs></svg><svg fill="none" viewBox="0 0 14 14" id="key" xmlns="http://www.w3.org/2000/svg"><g clip-path="url(#jclip0)"><path d="M8.059 8.535l-2.352 2.352H4.15v1.556H2.594v1.556H0v-2.594l5.465-5.464a4.407 4.407 0 112.564 2.584l.03.01zm4.393-5.43v-.002a1.556 1.556 0 10-1.556 1.556 1.557 1.557 0 001.556-1.555z" fill="#fff"/></g><defs><clipPath id="jclip0"><path fill="#fff" d="M0 0h14v14H0z"/></clipPath></defs></svg><svg fill="none" viewBox="0 0 111 12" id="longArrowRight" xmlns="http://www.w3.org/2000/svg"><path d="M110.53 6.53a.75.75 0 000-1.06L105.757.697a.75.75 0 10-1.06 1.06L108.939 6l-4.242 4.243a.75.75 0 001.06 1.06l4.773-4.773zM0 6.75h110v-1.5H0v1.5z" fill="#fff"/></svg><svg fill="none" viewBox="0 0 5 2" id="minus" xmlns="http://www.w3.org/2000/svg"><path d="M.08.564h4.716V1.68H.08V.564z" fill="#152536"/></svg><svg fill="none" viewBox="0 0 18 18" id="phone" xmlns="http://www.w3.org/2000/svg"><path d="M15.365 12.855l-3.049-2.772a.75.75 0 00-1.043.032l-1.795 1.846c-.432-.082-1.3-.353-2.194-1.245-.894-.895-1.165-1.765-1.245-2.194l1.844-1.796a.75.75 0 00.032-1.043l-2.77-3.048A.75.75 0 004.1 2.57L2.473 3.965a.75.75 0 00-.217.487c-.011.188-.226 4.63 3.218 8.075 3.005 3.003 6.768 3.223 7.805 3.223.151 0 .244-.004.269-.006a.744.744 0 00.486-.218l1.395-1.628a.748.748 0 00-.064-1.043z" fill="#FFA801"/></svg><svg fill="none" viewBox="0 0 9 9" id="plus" xmlns="http://www.w3.org/2000/svg"><path d="M8.09 5.24H4.742v3.276H3.608V5.24H.26V4.178h3.348V.884h1.134v3.294H8.09V5.24z" fill="#152536"/></svg><svg fill="none" viewBox="0 0 20 20" id="radio-check" xmlns="http://www.w3.org/2000/svg"><circle cx="10" cy="10" r="10" fill="#FFA801"/><circle cx="10" cy="10" r="3" fill="#fff"/></svg><svg fill="none" viewBox="0 0 20 20" id="radio-no-check" xmlns="http://www.w3.org/2000/svg"><circle cx="10" cy="10" r="9.5" fill="#fff" stroke="#FFA801"/></svg><svg fill="none" viewBox="0 0 10 10" id="search" xmlns="http://www.w3.org/2000/svg"><path fill-rule="evenodd" clip-rule="evenodd" d="M7.272 4.09a3.182 3.182 0 11-6.363 0 3.182 3.182 0 016.363 0zm-.628 3.197a4.09 4.09 0 11.643-.643l2.58 2.58a.455.455 0 11-.644.643l-2.578-2.58z" fill="#fff"/></svg><svg fill="none" viewBox="0 0 19 33" id="slide-next" xmlns="http://www.w3.org/2000/svg"><path d="M1.838 1.911L16.42 16.494 1.838 31.078" stroke="#000" stroke-width="2.98"/></svg><svg fill="none" viewBox="0 0 18 33" id="slide-prev" xmlns="http://www.w3.org/2000/svg"><path d="M16.792 1.911L2.208 16.494l14.584 14.584" stroke="#000" stroke-opacity=".38" stroke-width="2.98"/></svg><svg fill="none" viewBox="0 0 76 95" id="title-decor" xmlns="http://www.w3.org/2000/svg"><path fill="#FFA801" d="M.943 5h5v88h-5z"/><path fill="#FFA801" d="M.943 95v-5h75v5zM.943 5V0h75v5z"/></svg><svg fill="none" viewBox="0 0 16 16" id="user" xmlns="http://www.w3.org/2000/svg"><path d="M3 14s-1 0-1-1 1-4 6-4 6 3 6 4-1 1-1 1H3zm5-6a3 3 0 100-6 3 3 0 000 6z" fill="#fff"/></svg><svg fill="inherit" viewBox="0 0 25 25" id="vk" xmlns="http://www.w3.org/2000/svg"><path d="M12.166.516c-6.628 0-12 5.373-12 12 0 6.628 5.372 12 12 12 6.627 0 12-5.372 12-12 0-6.627-5.373-12-12-12zm4.615 13.539s1.061 1.047 1.322 1.534c.008.01.011.02.014.025.106.178.131.317.079.421-.088.172-.388.258-.49.265H15.83c-.13 0-.403-.034-.733-.261-.254-.178-.504-.469-.747-.753-.364-.422-.679-.787-.997-.787-.04 0-.08.006-.118.018-.24.078-.548.42-.548 1.333 0 .285-.225.449-.383.449h-.86c-.292 0-1.815-.103-3.165-1.526-1.653-1.744-3.14-5.242-3.153-5.274-.094-.227.1-.348.311-.348h1.894c.253 0 .335.154.393.29.067.159.315.79.72 1.5.66 1.158 1.063 1.628 1.387 1.628.06-.001.12-.016.174-.045.422-.235.344-1.741.325-2.054 0-.059-.002-.674-.218-.969-.155-.214-.418-.295-.578-.325a.688.688 0 01.248-.211c.29-.145.813-.166 1.332-.166h.288c.563.007.708.043.912.095.412.098.42.365.385 1.276-.012.259-.023.551-.023.896 0 .075-.004.155-.004.24-.012.464-.027.99.3 1.207a.27.27 0 00.143.04c.114 0 .456 0 1.383-1.59a12.15 12.15 0 00.744-1.593c.019-.033.074-.133.139-.171a.333.333 0 01.155-.037h2.226c.243 0 .409.037.44.13.055.15-.01.603-1.026 1.98l-.454.598c-.921 1.208-.921 1.269.058 2.185z"/></svg><svg fill="inherit" viewBox="0 0 26 26" id="youtube" xmlns="http://www.w3.org/2000/svg"><g clip-path="url(#wclip0)"><path d="M15.04 12.307l-2.808-1.31c-.245-.114-.446.014-.446.285v2.468c0 .271.201.399.446.285l2.807-1.31c.246-.115.246-.303 0-.418zM13.036.516c-6.627 0-12 5.372-12 12 0 6.627 5.373 12 12 12s12-5.372 12-12-5.373-12-12-12zm0 16.875c-6.142 0-6.25-.554-6.25-4.875s.108-4.875 6.25-4.875c6.143 0 6.25.554 6.25 4.875s-.108 4.875-6.25 4.875z"/></g><defs><clipPath id="wclip0"><path fill="#fff" transform="translate(.535 .015)" d="M0 0h25v25H0z"/></clipPath></defs></svg></svg>